<mxfile host="app.diagrams.net" agent="Mozilla/5.0 (Windows NT 10.0; Win64; x64) AppleWebKit/537.36 (KHTML, like Gecko) Chrome/133.0.0.0 Safari/537.36" version="26.0.11">
  <diagram name="Pagina-1" id="PBzKay77qeNed4aOOP48">
    <mxGraphModel dx="1301" dy="532" grid="1" gridSize="10" guides="1" tooltips="1" connect="1" arrows="1" fold="1" page="1" pageScale="1" pageWidth="827" pageHeight="1169" math="0" shadow="0">
      <root>
        <mxCell id="0" />
        <mxCell id="1" parent="0" />
        <mxCell id="F2Mt7jQUTRLg9_3YxVR8-1" value="Ospite ( senza account )" style="shape=umlActor;verticalLabelPosition=bottom;verticalAlign=top;html=1;shadow=0;" parent="1" vertex="1">
          <mxGeometry x="384" y="130" width="59" height="120" as="geometry" />
        </mxCell>
        <mxCell id="F2Mt7jQUTRLg9_3YxVR8-2" value="Cercare Eventi" style="ellipse;whiteSpace=wrap;html=1;shadow=0;" parent="1" vertex="1">
          <mxGeometry x="220" y="70" width="130" height="60" as="geometry" />
        </mxCell>
        <mxCell id="F2Mt7jQUTRLg9_3YxVR8-5" value="Utente" style="shape=umlActor;verticalLabelPosition=bottom;verticalAlign=top;html=1;shadow=0;" parent="1" vertex="1">
          <mxGeometry x="190" y="350" width="59" height="120" as="geometry" />
        </mxCell>
        <mxCell id="F2Mt7jQUTRLg9_3YxVR8-7" value="Partecipare ad Eventi" style="ellipse;whiteSpace=wrap;html=1;shadow=0;" parent="1" vertex="1">
          <mxGeometry x="344" y="375" width="140" height="70" as="geometry" />
        </mxCell>
        <mxCell id="F2Mt7jQUTRLg9_3YxVR8-8" value="Creare Eventi" style="ellipse;whiteSpace=wrap;html=1;shadow=0;" parent="1" vertex="1">
          <mxGeometry x="344" y="290" width="140" height="70" as="geometry" />
        </mxCell>
        <mxCell id="F2Mt7jQUTRLg9_3YxVR8-9" value="Amministratore" style="shape=umlActor;verticalLabelPosition=bottom;verticalAlign=top;html=1;shadow=0;" parent="1" vertex="1">
          <mxGeometry x="570" y="345" width="59" height="120" as="geometry" />
        </mxCell>
        <mxCell id="F2Mt7jQUTRLg9_3YxVR8-10" value="Approvare Richieste" style="ellipse;whiteSpace=wrap;html=1;shadow=0;" parent="1" vertex="1">
          <mxGeometry x="670" y="340" width="140" height="70" as="geometry" />
        </mxCell>
        <mxCell id="F2Mt7jQUTRLg9_3YxVR8-11" value="Eliminare Eventi" style="ellipse;whiteSpace=wrap;html=1;shadow=0;" parent="1" vertex="1">
          <mxGeometry x="670" y="420" width="140" height="70" as="geometry" />
        </mxCell>
        <mxCell id="F2Mt7jQUTRLg9_3YxVR8-12" value="Eliminare propri&lt;div&gt;&lt;span style=&quot;background-color: initial;&quot;&gt;&amp;nbsp;Eventi&lt;/span&gt;&lt;/div&gt;" style="ellipse;whiteSpace=wrap;html=1;shadow=0;" parent="1" vertex="1">
          <mxGeometry x="349" y="470" width="140" height="70" as="geometry" />
        </mxCell>
        <mxCell id="F2Mt7jQUTRLg9_3YxVR8-23" value="" style="endArrow=open;endFill=1;endSize=12;html=1;rounded=0;exitX=0.5;exitY=0;exitDx=0;exitDy=0;exitPerimeter=0;shadow=0;" parent="1" source="F2Mt7jQUTRLg9_3YxVR8-5" target="F2Mt7jQUTRLg9_3YxVR8-1" edge="1">
          <mxGeometry width="160" relative="1" as="geometry">
            <mxPoint x="330" y="380" as="sourcePoint" />
            <mxPoint x="490" y="380" as="targetPoint" />
          </mxGeometry>
        </mxCell>
        <mxCell id="F2Mt7jQUTRLg9_3YxVR8-24" value="" style="endArrow=open;endFill=1;endSize=12;html=1;rounded=0;exitX=0.5;exitY=0;exitDx=0;exitDy=0;exitPerimeter=0;shadow=0;" parent="1" source="F2Mt7jQUTRLg9_3YxVR8-9" target="F2Mt7jQUTRLg9_3YxVR8-1" edge="1">
          <mxGeometry width="160" relative="1" as="geometry">
            <mxPoint x="230" y="360" as="sourcePoint" />
            <mxPoint x="394" y="224" as="targetPoint" />
          </mxGeometry>
        </mxCell>
        <mxCell id="F2Mt7jQUTRLg9_3YxVR8-29" style="rounded=0;orthogonalLoop=1;jettySize=auto;html=1;exitX=0.5;exitY=0.5;exitDx=0;exitDy=0;entryX=0;entryY=0.5;entryDx=0;entryDy=0;endArrow=none;endFill=0;exitPerimeter=0;shadow=0;" parent="1" source="F2Mt7jQUTRLg9_3YxVR8-5" target="F2Mt7jQUTRLg9_3YxVR8-8" edge="1">
          <mxGeometry relative="1" as="geometry">
            <mxPoint x="170" y="425" as="sourcePoint" />
            <mxPoint x="240" y="430" as="targetPoint" />
          </mxGeometry>
        </mxCell>
        <mxCell id="F2Mt7jQUTRLg9_3YxVR8-30" style="rounded=0;orthogonalLoop=1;jettySize=auto;html=1;entryX=0;entryY=0.5;entryDx=0;entryDy=0;endArrow=none;endFill=0;shadow=0;" parent="1" target="F2Mt7jQUTRLg9_3YxVR8-12" edge="1">
          <mxGeometry relative="1" as="geometry">
            <mxPoint x="220" y="410" as="sourcePoint" />
            <mxPoint x="354" y="365" as="targetPoint" />
          </mxGeometry>
        </mxCell>
        <mxCell id="F2Mt7jQUTRLg9_3YxVR8-31" style="rounded=0;orthogonalLoop=1;jettySize=auto;html=1;endArrow=none;endFill=0;entryX=0.5;entryY=0.5;entryDx=0;entryDy=0;entryPerimeter=0;exitX=1;exitY=0.5;exitDx=0;exitDy=0;shadow=0;" parent="1" source="F2Mt7jQUTRLg9_3YxVR8-8" target="F2Mt7jQUTRLg9_3YxVR8-9" edge="1">
          <mxGeometry relative="1" as="geometry">
            <mxPoint x="484" y="390" as="sourcePoint" />
            <mxPoint x="570" y="394" as="targetPoint" />
          </mxGeometry>
        </mxCell>
        <mxCell id="F2Mt7jQUTRLg9_3YxVR8-32" style="rounded=0;orthogonalLoop=1;jettySize=auto;html=1;endArrow=none;endFill=0;entryX=0.5;entryY=0.5;entryDx=0;entryDy=0;entryPerimeter=0;exitX=1;exitY=0.5;exitDx=0;exitDy=0;shadow=0;" parent="1" source="F2Mt7jQUTRLg9_3YxVR8-12" target="F2Mt7jQUTRLg9_3YxVR8-9" edge="1">
          <mxGeometry relative="1" as="geometry">
            <mxPoint x="484" y="450" as="sourcePoint" />
            <mxPoint x="600" y="495" as="targetPoint" />
          </mxGeometry>
        </mxCell>
        <mxCell id="F2Mt7jQUTRLg9_3YxVR8-33" style="rounded=0;orthogonalLoop=1;jettySize=auto;html=1;endArrow=none;endFill=0;entryX=0.5;entryY=0.5;entryDx=0;entryDy=0;entryPerimeter=0;exitX=0;exitY=0.5;exitDx=0;exitDy=0;shadow=0;" parent="1" source="F2Mt7jQUTRLg9_3YxVR8-10" target="F2Mt7jQUTRLg9_3YxVR8-9" edge="1">
          <mxGeometry relative="1" as="geometry">
            <mxPoint x="504" y="380" as="sourcePoint" />
            <mxPoint x="620" y="425" as="targetPoint" />
          </mxGeometry>
        </mxCell>
        <mxCell id="F2Mt7jQUTRLg9_3YxVR8-34" style="rounded=0;orthogonalLoop=1;jettySize=auto;html=1;endArrow=none;endFill=0;entryX=0;entryY=0.5;entryDx=0;entryDy=0;exitX=0.5;exitY=0.5;exitDx=0;exitDy=0;exitPerimeter=0;shadow=0;" parent="1" source="F2Mt7jQUTRLg9_3YxVR8-9" target="F2Mt7jQUTRLg9_3YxVR8-11" edge="1">
          <mxGeometry relative="1" as="geometry">
            <mxPoint x="600" y="400" as="sourcePoint" />
            <mxPoint x="716" y="445" as="targetPoint" />
          </mxGeometry>
        </mxCell>
        <mxCell id="F2Mt7jQUTRLg9_3YxVR8-35" style="rounded=0;orthogonalLoop=1;jettySize=auto;html=1;endArrow=none;endFill=0;entryX=0.5;entryY=1;entryDx=0;entryDy=0;exitX=0.5;exitY=0;exitDx=0;exitDy=0;exitPerimeter=0;shadow=0;" parent="1" source="F2Mt7jQUTRLg9_3YxVR8-1" target="F2Mt7jQUTRLg9_3YxVR8-2" edge="1">
          <mxGeometry relative="1" as="geometry">
            <mxPoint x="410" y="100" as="sourcePoint" />
            <mxPoint x="530" y="145" as="targetPoint" />
          </mxGeometry>
        </mxCell>
        <mxCell id="eZstt7uDChOP6H_mHpOf-5" style="rounded=0;orthogonalLoop=1;jettySize=auto;html=1;endArrow=none;endFill=0;entryX=0.5;entryY=0.5;entryDx=0;entryDy=0;exitX=1;exitY=0.5;exitDx=0;exitDy=0;shadow=0;entryPerimeter=0;" edge="1" parent="1" source="F2Mt7jQUTRLg9_3YxVR8-7" target="F2Mt7jQUTRLg9_3YxVR8-9">
          <mxGeometry relative="1" as="geometry">
            <mxPoint x="610" y="415" as="sourcePoint" />
            <mxPoint x="680" y="465" as="targetPoint" />
          </mxGeometry>
        </mxCell>
        <mxCell id="eZstt7uDChOP6H_mHpOf-6" style="rounded=0;orthogonalLoop=1;jettySize=auto;html=1;endArrow=none;endFill=0;entryX=0;entryY=0.5;entryDx=0;entryDy=0;exitX=0.5;exitY=0.5;exitDx=0;exitDy=0;exitPerimeter=0;shadow=0;" edge="1" parent="1" target="F2Mt7jQUTRLg9_3YxVR8-7">
          <mxGeometry relative="1" as="geometry">
            <mxPoint x="220" y="410" as="sourcePoint" />
            <mxPoint x="290" y="460" as="targetPoint" />
          </mxGeometry>
        </mxCell>
        <mxCell id="eZstt7uDChOP6H_mHpOf-7" value="visualizzare informazioni eventi" style="ellipse;whiteSpace=wrap;html=1;shadow=0;" vertex="1" parent="1">
          <mxGeometry x="470" y="70" width="130" height="60" as="geometry" />
        </mxCell>
        <mxCell id="eZstt7uDChOP6H_mHpOf-8" style="rounded=0;orthogonalLoop=1;jettySize=auto;html=1;endArrow=none;endFill=0;entryX=0.5;entryY=1;entryDx=0;entryDy=0;exitX=0.5;exitY=0;exitDx=0;exitDy=0;exitPerimeter=0;shadow=0;" edge="1" parent="1" source="F2Mt7jQUTRLg9_3YxVR8-1" target="eZstt7uDChOP6H_mHpOf-7">
          <mxGeometry relative="1" as="geometry">
            <mxPoint x="570" y="130" as="sourcePoint" />
            <mxPoint x="491" y="110" as="targetPoint" />
          </mxGeometry>
        </mxCell>
        <mxCell id="eZstt7uDChOP6H_mHpOf-9" value="visualizzare informazioni eventi" style="ellipse;whiteSpace=wrap;html=1;shadow=0;" vertex="1" parent="1">
          <mxGeometry x="30" y="380" width="130" height="60" as="geometry" />
        </mxCell>
        <mxCell id="eZstt7uDChOP6H_mHpOf-11" style="rounded=0;orthogonalLoop=1;jettySize=auto;html=1;endArrow=none;endFill=0;entryX=0.5;entryY=0.5;entryDx=0;entryDy=0;exitX=1;exitY=0.5;exitDx=0;exitDy=0;shadow=0;entryPerimeter=0;" edge="1" parent="1" source="eZstt7uDChOP6H_mHpOf-9" target="F2Mt7jQUTRLg9_3YxVR8-5">
          <mxGeometry relative="1" as="geometry">
            <mxPoint x="157.5" y="420" as="sourcePoint" />
            <mxPoint x="281.5" y="420" as="targetPoint" />
          </mxGeometry>
        </mxCell>
        <mxCell id="eZstt7uDChOP6H_mHpOf-12" value="Accesso e Iscrzione" style="ellipse;whiteSpace=wrap;html=1;shadow=0;" vertex="1" parent="1">
          <mxGeometry x="350" y="20" width="130" height="60" as="geometry" />
        </mxCell>
        <mxCell id="eZstt7uDChOP6H_mHpOf-13" style="rounded=0;orthogonalLoop=1;jettySize=auto;html=1;endArrow=none;endFill=0;entryX=0.5;entryY=0;entryDx=0;entryDy=0;exitX=0.5;exitY=1;exitDx=0;exitDy=0;shadow=0;entryPerimeter=0;" edge="1" parent="1" source="eZstt7uDChOP6H_mHpOf-12" target="F2Mt7jQUTRLg9_3YxVR8-1">
          <mxGeometry relative="1" as="geometry">
            <mxPoint x="424" y="140" as="sourcePoint" />
            <mxPoint x="545" y="140" as="targetPoint" />
          </mxGeometry>
        </mxCell>
      </root>
    </mxGraphModel>
  </diagram>
</mxfile>
